<?xml version="1.0" encoding="utf-8" standalone="no"?>
<!DOCTYPE svg PUBLIC "-//W3C//DTD SVG 1.1//EN"
  "http://www.w3.org/Graphics/SVG/1.1/DTD/svg11.dtd">
<svg xmlns:xlink="http://www.w3.org/1999/xlink" width="216pt" height="216pt" viewBox="0 0 216 216" xmlns="http://www.w3.org/2000/svg" version="1.1">
 <metadata>
  <rdf:RDF xmlns:dc="http://purl.org/dc/elements/1.1/" xmlns:cc="http://creativecommons.org/ns#" xmlns:rdf="http://www.w3.org/1999/02/22-rdf-syntax-ns#">
   <cc:Work>
    <dc:type rdf:resource="http://purl.org/dc/dcmitype/StillImage"/>
    <dc:date>2024-09-11T19:01:53.344032</dc:date>
    <dc:format>image/svg+xml</dc:format>
    <dc:creator>
     <cc:Agent>
      <dc:title>Matplotlib v3.7.2, https://matplotlib.org/</dc:title>
     </cc:Agent>
    </dc:creator>
   </cc:Work>
  </rdf:RDF>
 </metadata>
 <defs>
  <style type="text/css">*{stroke-linejoin: round; stroke-linecap: butt}</style>
 </defs>
 <g id="figure_1">
  <g id="patch_1">
   <path d="M 0 216 
L 216 216 
L 216 0 
L 0 0 
z
" style="fill: #ffffff"/>
  </g>
  <g id="axes_1">
   <g id="patch_2">
    <path d="M 49.68 189 
L 203.04 189 
L 203.04 3.24 
L 49.68 3.24 
z
" style="fill: #ffffff"/>
   </g>
   <g id="PathCollection_1">
    <defs>
     <path id="m3257ce1661" d="M 0 1.581139 
C 0.419323 1.581139 0.821528 1.41454 1.118034 1.118034 
C 1.41454 0.821528 1.581139 0.419323 1.581139 0 
C 1.581139 -0.419323 1.41454 -0.821528 1.118034 -1.118034 
C 0.821528 -1.41454 0.419323 -1.581139 0 -1.581139 
C -0.419323 -1.581139 -0.821528 -1.41454 -1.118034 -1.118034 
C -1.41454 -0.821528 -1.581139 -0.419323 -1.581139 0 
C -1.581139 0.419323 -1.41454 0.821528 -1.118034 1.118034 
C -0.821528 1.41454 -0.419323 1.581139 0 1.581139 
z
" style="stroke: #000080"/>
    </defs>
    <g clip-path="url(#pd7808d3bc7)">
     <use xlink:href="#m3257ce1661" x="69.437634" y="165.037142" style="fill: #000080; stroke: #000080"/>
     <use xlink:href="#m3257ce1661" x="68.02979" y="118.45892" style="fill: #000080; stroke: #000080"/>
     <use xlink:href="#m3257ce1661" x="68.117424" y="156.585987" style="fill: #000080; stroke: #000080"/>
     <use xlink:href="#m3257ce1661" x="62.81819" y="151.099062" style="fill: #000080; stroke: #000080"/>
     <use xlink:href="#m3257ce1661" x="66.048663" y="147.654123" style="fill: #000080; stroke: #000080"/>
     <use xlink:href="#m3257ce1661" x="67.468737" y="51.174093" style="fill: #000080; stroke: #000080"/>
     <use xlink:href="#m3257ce1661" x="64.767841" y="143.513995" style="fill: #000080; stroke: #000080"/>
     <use xlink:href="#m3257ce1661" x="68.153861" y="33.76161" style="fill: #000080; stroke: #000080"/>
     <use xlink:href="#m3257ce1661" x="69.145144" y="152.701396" style="fill: #000080; stroke: #000080"/>
     <use xlink:href="#m3257ce1661" x="66.858085" y="171.175932" style="fill: #000080; stroke: #000080"/>
     <use xlink:href="#m3257ce1661" x="70.937668" y="160.077371" style="fill: #000080; stroke: #000080"/>
    </g>
   </g>
   <g id="PathCollection_2">
    <defs>
     <path id="me8bb3a59cd" d="M 0 1.581139 
C 0.419323 1.581139 0.821528 1.41454 1.118034 1.118034 
C 1.41454 0.821528 1.581139 0.419323 1.581139 0 
C 1.581139 -0.419323 1.41454 -0.821528 1.118034 -1.118034 
C 0.821528 -1.41454 0.419323 -1.581139 0 -1.581139 
C -0.419323 -1.581139 -0.821528 -1.41454 -1.118034 -1.118034 
C -1.41454 -0.821528 -1.581139 -0.419323 -1.581139 0 
C -1.581139 0.419323 -1.41454 0.821528 -1.118034 1.118034 
C -0.821528 1.41454 -0.419323 1.581139 0 1.581139 
z
" style="stroke: #7e2954"/>
    </defs>
    <g clip-path="url(#pd7808d3bc7)">
     <use xlink:href="#me8bb3a59cd" x="189.667701" y="158.830428" style="fill: #7e2954; stroke: #7e2954"/>
     <use xlink:href="#me8bb3a59cd" x="153.757451" y="164.949591" style="fill: #7e2954; stroke: #7e2954"/>
     <use xlink:href="#me8bb3a59cd" x="170.826239" y="168.503785" style="fill: #7e2954; stroke: #7e2954"/>
     <use xlink:href="#me8bb3a59cd" x="182.498458" y="170.677194" style="fill: #7e2954; stroke: #7e2954"/>
     <use xlink:href="#me8bb3a59cd" x="178.307831" y="155.741592" style="fill: #7e2954; stroke: #7e2954"/>
     <use xlink:href="#me8bb3a59cd" x="196.069091" y="166.359782" style="fill: #7e2954; stroke: #7e2954"/>
     <use xlink:href="#me8bb3a59cd" x="157.01051" y="170.306562" style="fill: #7e2954; stroke: #7e2954"/>
     <use xlink:href="#me8bb3a59cd" x="161.030952" y="172.488117" style="fill: #7e2954; stroke: #7e2954"/>
     <use xlink:href="#me8bb3a59cd" x="190.290196" y="159.358246" style="fill: #7e2954; stroke: #7e2954"/>
     <use xlink:href="#me8bb3a59cd" x="192.565836" y="164.902715" style="fill: #7e2954; stroke: #7e2954"/>
     <use xlink:href="#me8bb3a59cd" x="191.451369" y="172.50311" style="fill: #7e2954; stroke: #7e2954"/>
     <use xlink:href="#me8bb3a59cd" x="145.216937" y="168.799053" style="fill: #7e2954; stroke: #7e2954"/>
    </g>
   </g>
   <g id="matplotlib.axis_1">
    <g id="xtick_1">
     <g id="line2d_1">
      <defs>
       <path id="m78789bffa5" d="M 0 0 
L 0 2.25 
" style="stroke: #000000"/>
      </defs>
      <g>
       <use xlink:href="#m78789bffa5" x="67.504989" y="189" style="stroke: #000000"/>
      </g>
     </g>
     <g id="text_1">
      <!-- $\frac{\epsilon_{GPM6a}}{&lt;\epsilon_{GPM6a}&gt;}$ -->
      <g transform="translate(46.444989 207.59) scale(0.12 -0.12)">
       <defs>
        <path id="ArialMT-3b5" d="M 2591 2944 
L 2188 2619 
Q 1803 2909 1469 2909 
Q 1194 2909 1067 2762 
Q 941 2616 941 2447 
Q 941 2228 1128 2083 
Q 1316 1938 1678 1938 
Q 1725 1938 1834 1941 
L 1834 1469 
Q 1734 1472 1684 1472 
Q 1238 1472 1064 1300 
Q 891 1128 891 913 
Q 891 691 1066 539 
Q 1241 388 1481 388 
Q 1922 388 2306 797 
L 2709 456 
Q 2209 -75 1466 -75 
Q 881 -75 593 222 
Q 306 519 306 913 
Q 306 1478 856 1716 
Q 397 1975 397 2431 
Q 397 2803 669 3098 
Q 941 3394 1503 3394 
Q 2147 3394 2591 2944 
z
" transform="scale(0.015625)"/>
        <path id="ArialMT-47" d="M 2638 1797 
L 2638 2334 
L 4578 2338 
L 4578 638 
Q 4131 281 3656 101 
Q 3181 -78 2681 -78 
Q 2006 -78 1454 211 
Q 903 500 622 1047 
Q 341 1594 341 2269 
Q 341 2938 620 3517 
Q 900 4097 1425 4378 
Q 1950 4659 2634 4659 
Q 3131 4659 3532 4498 
Q 3934 4338 4162 4050 
Q 4391 3763 4509 3300 
L 3963 3150 
Q 3859 3500 3706 3700 
Q 3553 3900 3268 4020 
Q 2984 4141 2638 4141 
Q 2222 4141 1919 4014 
Q 1616 3888 1430 3681 
Q 1244 3475 1141 3228 
Q 966 2803 966 2306 
Q 966 1694 1177 1281 
Q 1388 869 1791 669 
Q 2194 469 2647 469 
Q 3041 469 3416 620 
Q 3791 772 3984 944 
L 3984 1797 
L 2638 1797 
z
" transform="scale(0.015625)"/>
        <path id="ArialMT-50" d="M 494 0 
L 494 4581 
L 2222 4581 
Q 2678 4581 2919 4538 
Q 3256 4481 3484 4323 
Q 3713 4166 3852 3881 
Q 3991 3597 3991 3256 
Q 3991 2672 3619 2267 
Q 3247 1863 2275 1863 
L 1100 1863 
L 1100 0 
L 494 0 
z
M 1100 2403 
L 2284 2403 
Q 2872 2403 3119 2622 
Q 3366 2841 3366 3238 
Q 3366 3525 3220 3729 
Q 3075 3934 2838 4000 
Q 2684 4041 2272 4041 
L 1100 4041 
L 1100 2403 
z
" transform="scale(0.015625)"/>
        <path id="ArialMT-4d" d="M 475 0 
L 475 4581 
L 1388 4581 
L 2472 1338 
Q 2622 884 2691 659 
Q 2769 909 2934 1394 
L 4031 4581 
L 4847 4581 
L 4847 0 
L 4263 0 
L 4263 3834 
L 2931 0 
L 2384 0 
L 1059 3900 
L 1059 0 
L 475 0 
z
" transform="scale(0.015625)"/>
        <path id="ArialMT-36" d="M 3184 3459 
L 2625 3416 
Q 2550 3747 2413 3897 
Q 2184 4138 1850 4138 
Q 1581 4138 1378 3988 
Q 1113 3794 959 3422 
Q 806 3050 800 2363 
Q 1003 2672 1297 2822 
Q 1591 2972 1913 2972 
Q 2475 2972 2870 2558 
Q 3266 2144 3266 1488 
Q 3266 1056 3080 686 
Q 2894 316 2569 119 
Q 2244 -78 1831 -78 
Q 1128 -78 684 439 
Q 241 956 241 2144 
Q 241 3472 731 4075 
Q 1159 4600 1884 4600 
Q 2425 4600 2770 4297 
Q 3116 3994 3184 3459 
z
M 888 1484 
Q 888 1194 1011 928 
Q 1134 663 1356 523 
Q 1578 384 1822 384 
Q 2178 384 2434 671 
Q 2691 959 2691 1453 
Q 2691 1928 2437 2201 
Q 2184 2475 1800 2475 
Q 1419 2475 1153 2201 
Q 888 1928 888 1484 
z
" transform="scale(0.015625)"/>
        <path id="ArialMT-61" d="M 2588 409 
Q 2275 144 1986 34 
Q 1697 -75 1366 -75 
Q 819 -75 525 192 
Q 231 459 231 875 
Q 231 1119 342 1320 
Q 453 1522 633 1644 
Q 813 1766 1038 1828 
Q 1203 1872 1538 1913 
Q 2219 1994 2541 2106 
Q 2544 2222 2544 2253 
Q 2544 2597 2384 2738 
Q 2169 2928 1744 2928 
Q 1347 2928 1158 2789 
Q 969 2650 878 2297 
L 328 2372 
Q 403 2725 575 2942 
Q 747 3159 1072 3276 
Q 1397 3394 1825 3394 
Q 2250 3394 2515 3294 
Q 2781 3194 2906 3042 
Q 3031 2891 3081 2659 
Q 3109 2516 3109 2141 
L 3109 1391 
Q 3109 606 3145 398 
Q 3181 191 3288 0 
L 2700 0 
Q 2613 175 2588 409 
z
M 2541 1666 
Q 2234 1541 1622 1453 
Q 1275 1403 1131 1340 
Q 988 1278 909 1158 
Q 831 1038 831 891 
Q 831 666 1001 516 
Q 1172 366 1500 366 
Q 1825 366 2078 508 
Q 2331 650 2450 897 
Q 2541 1088 2541 1459 
L 2541 1666 
z
" transform="scale(0.015625)"/>
        <path id="ArialMT-3c" d="M 350 2003 
L 350 2528 
L 3384 3809 
L 3384 3250 
L 978 2263 
L 3384 1266 
L 3384 706 
L 350 2003 
z
" transform="scale(0.015625)"/>
        <path id="ArialMT-3e" d="M 3384 2003 
L 350 706 
L 350 1266 
L 2753 2263 
L 350 3250 
L 350 3809 
L 3384 2528 
L 3384 2003 
z
" transform="scale(0.015625)"/>
       </defs>
       <use xlink:href="#ArialMT-3b5" transform="translate(68 69.878125) scale(0.7)"/>
       <use xlink:href="#ArialMT-47" transform="translate(100.425695 48.97) scale(0.49)"/>
       <use xlink:href="#ArialMT-50" transform="translate(138.539465 48.97) scale(0.49)"/>
       <use xlink:href="#ArialMT-4d" transform="translate(171.222082 48.97) scale(0.49)"/>
       <use xlink:href="#ArialMT-36" transform="translate(212.039465 48.97) scale(0.49)"/>
       <use xlink:href="#ArialMT-61" transform="translate(239.29093 48.97) scale(0.49)"/>
       <use xlink:href="#ArialMT-3c" transform="translate(13.637695 -24.538125) scale(0.7)"/>
       <use xlink:href="#ArialMT-3b5" transform="translate(68.154297 -24.538125) scale(0.7)"/>
       <use xlink:href="#ArialMT-47" transform="translate(100.579992 -45.44625) scale(0.49)"/>
       <use xlink:href="#ArialMT-50" transform="translate(138.693762 -45.44625) scale(0.49)"/>
       <use xlink:href="#ArialMT-4d" transform="translate(171.376379 -45.44625) scale(0.49)"/>
       <use xlink:href="#ArialMT-36" transform="translate(212.193762 -45.44625) scale(0.49)"/>
       <use xlink:href="#ArialMT-61" transform="translate(239.445227 -45.44625) scale(0.49)"/>
       <use xlink:href="#ArialMT-3e" transform="translate(283.819074 -24.538125) scale(0.7)"/>
       <path d="M 0 23.372813 
L 0 29.622813 
L 338.335676 29.622813 
L 338.335676 23.372813 
L 0 23.372813 
z
"/>
      </g>
     </g>
    </g>
    <g id="xtick_2">
     <g id="line2d_2">
      <g>
       <use xlink:href="#m78789bffa5" x="176.045784" y="189" style="stroke: #000000"/>
      </g>
     </g>
     <g id="text_2">
      <!-- $\frac{\epsilon_{T210N}}{&lt;\epsilon_{GPM6a}&gt;}$ -->
      <g transform="translate(154.985784 207.59) scale(0.12 -0.12)">
       <defs>
        <path id="ArialMT-54" d="M 1659 0 
L 1659 4041 
L 150 4041 
L 150 4581 
L 3781 4581 
L 3781 4041 
L 2266 4041 
L 2266 0 
L 1659 0 
z
" transform="scale(0.015625)"/>
        <path id="ArialMT-32" d="M 3222 541 
L 3222 0 
L 194 0 
Q 188 203 259 391 
Q 375 700 629 1000 
Q 884 1300 1366 1694 
Q 2113 2306 2375 2664 
Q 2638 3022 2638 3341 
Q 2638 3675 2398 3904 
Q 2159 4134 1775 4134 
Q 1369 4134 1125 3890 
Q 881 3647 878 3216 
L 300 3275 
Q 359 3922 746 4261 
Q 1134 4600 1788 4600 
Q 2447 4600 2831 4234 
Q 3216 3869 3216 3328 
Q 3216 3053 3103 2787 
Q 2991 2522 2730 2228 
Q 2469 1934 1863 1422 
Q 1356 997 1212 845 
Q 1069 694 975 541 
L 3222 541 
z
" transform="scale(0.015625)"/>
        <path id="ArialMT-31" d="M 2384 0 
L 1822 0 
L 1822 3584 
Q 1619 3391 1289 3197 
Q 959 3003 697 2906 
L 697 3450 
Q 1169 3672 1522 3987 
Q 1875 4303 2022 4600 
L 2384 4600 
L 2384 0 
z
" transform="scale(0.015625)"/>
        <path id="ArialMT-30" d="M 266 2259 
Q 266 3072 433 3567 
Q 600 4063 929 4331 
Q 1259 4600 1759 4600 
Q 2128 4600 2406 4451 
Q 2684 4303 2865 4023 
Q 3047 3744 3150 3342 
Q 3253 2941 3253 2259 
Q 3253 1453 3087 958 
Q 2922 463 2592 192 
Q 2263 -78 1759 -78 
Q 1097 -78 719 397 
Q 266 969 266 2259 
z
M 844 2259 
Q 844 1131 1108 757 
Q 1372 384 1759 384 
Q 2147 384 2411 759 
Q 2675 1134 2675 2259 
Q 2675 3391 2411 3762 
Q 2147 4134 1753 4134 
Q 1366 4134 1134 3806 
Q 844 3388 844 2259 
z
" transform="scale(0.015625)"/>
        <path id="ArialMT-4e" d="M 488 0 
L 488 4581 
L 1109 4581 
L 3516 984 
L 3516 4581 
L 4097 4581 
L 4097 0 
L 3475 0 
L 1069 3600 
L 1069 0 
L 488 0 
z
" transform="scale(0.015625)"/>
       </defs>
       <use xlink:href="#ArialMT-3b5" transform="translate(78 69.878125) scale(0.7)"/>
       <use xlink:href="#ArialMT-54" transform="translate(110.425695 48.97) scale(0.49)"/>
       <use xlink:href="#ArialMT-32" transform="translate(140.356848 48.97) scale(0.49)"/>
       <use xlink:href="#ArialMT-31" transform="translate(167.608312 48.97) scale(0.49)"/>
       <use xlink:href="#ArialMT-30" transform="translate(194.859777 48.97) scale(0.49)"/>
       <use xlink:href="#ArialMT-4e" transform="translate(222.111242 48.97) scale(0.49)"/>
       <use xlink:href="#ArialMT-3c" transform="translate(13.637695 -24.538125) scale(0.7)"/>
       <use xlink:href="#ArialMT-3b5" transform="translate(68.154297 -24.538125) scale(0.7)"/>
       <use xlink:href="#ArialMT-47" transform="translate(100.579992 -45.44625) scale(0.49)"/>
       <use xlink:href="#ArialMT-50" transform="translate(138.693762 -45.44625) scale(0.49)"/>
       <use xlink:href="#ArialMT-4d" transform="translate(171.376379 -45.44625) scale(0.49)"/>
       <use xlink:href="#ArialMT-36" transform="translate(212.193762 -45.44625) scale(0.49)"/>
       <use xlink:href="#ArialMT-61" transform="translate(239.445227 -45.44625) scale(0.49)"/>
       <use xlink:href="#ArialMT-3e" transform="translate(283.819074 -24.538125) scale(0.7)"/>
       <path d="M 0 23.372813 
L 0 29.622813 
L 338.335676 29.622813 
L 338.335676 23.372813 
L 0 23.372813 
z
"/>
      </g>
     </g>
    </g>
   </g>
   <g id="matplotlib.axis_2">
    <g id="ytick_1">
     <g id="line2d_3">
      <defs>
       <path id="md5d4795971" d="M 0 0 
L -2.25 0 
" style="stroke: #000000"/>
      </defs>
      <g>
       <use xlink:href="#md5d4795971" x="49.68" y="189" style="stroke: #000000"/>
      </g>
     </g>
     <g id="text_3">
      <!-- 0.0 -->
      <g transform="translate(27.25 193.294688) scale(0.12 -0.12)">
       <defs>
        <path id="ArialMT-2e" d="M 581 0 
L 581 641 
L 1222 641 
L 1222 0 
L 581 0 
z
" transform="scale(0.015625)"/>
       </defs>
       <use xlink:href="#ArialMT-30"/>
       <use xlink:href="#ArialMT-2e" x="55.615234"/>
       <use xlink:href="#ArialMT-30" x="83.398438"/>
      </g>
     </g>
    </g>
    <g id="ytick_2">
     <g id="line2d_4">
      <g>
       <use xlink:href="#md5d4795971" x="49.68" y="160.465438" style="stroke: #000000"/>
      </g>
     </g>
     <g id="text_4">
      <!-- 0.5 -->
      <g transform="translate(27.25 164.760125) scale(0.12 -0.12)">
       <defs>
        <path id="ArialMT-35" d="M 266 1200 
L 856 1250 
Q 922 819 1161 601 
Q 1400 384 1738 384 
Q 2144 384 2425 690 
Q 2706 997 2706 1503 
Q 2706 1984 2436 2262 
Q 2166 2541 1728 2541 
Q 1456 2541 1237 2417 
Q 1019 2294 894 2097 
L 366 2166 
L 809 4519 
L 3088 4519 
L 3088 3981 
L 1259 3981 
L 1013 2750 
Q 1425 3038 1878 3038 
Q 2478 3038 2890 2622 
Q 3303 2206 3303 1553 
Q 3303 931 2941 478 
Q 2500 -78 1738 -78 
Q 1113 -78 717 272 
Q 322 622 266 1200 
z
" transform="scale(0.015625)"/>
       </defs>
       <use xlink:href="#ArialMT-30"/>
       <use xlink:href="#ArialMT-2e" x="55.615234"/>
       <use xlink:href="#ArialMT-35" x="83.398438"/>
      </g>
     </g>
    </g>
    <g id="ytick_3">
     <g id="line2d_5">
      <g>
       <use xlink:href="#md5d4795971" x="49.68" y="131.930876" style="stroke: #000000"/>
      </g>
     </g>
     <g id="text_5">
      <!-- 1.0 -->
      <g transform="translate(27.25 136.225563) scale(0.12 -0.12)">
       <use xlink:href="#ArialMT-31"/>
       <use xlink:href="#ArialMT-2e" x="55.615234"/>
       <use xlink:href="#ArialMT-30" x="83.398438"/>
      </g>
     </g>
    </g>
    <g id="ytick_4">
     <g id="line2d_6">
      <g>
       <use xlink:href="#md5d4795971" x="49.68" y="103.396313" style="stroke: #000000"/>
      </g>
     </g>
     <g id="text_6">
      <!-- 1.5 -->
      <g transform="translate(27.25 107.691001) scale(0.12 -0.12)">
       <use xlink:href="#ArialMT-31"/>
       <use xlink:href="#ArialMT-2e" x="55.615234"/>
       <use xlink:href="#ArialMT-35" x="83.398438"/>
      </g>
     </g>
    </g>
    <g id="ytick_5">
     <g id="line2d_7">
      <g>
       <use xlink:href="#md5d4795971" x="49.68" y="74.861751" style="stroke: #000000"/>
      </g>
     </g>
     <g id="text_7">
      <!-- 2.0 -->
      <g transform="translate(27.25 79.156439) scale(0.12 -0.12)">
       <use xlink:href="#ArialMT-32"/>
       <use xlink:href="#ArialMT-2e" x="55.615234"/>
       <use xlink:href="#ArialMT-30" x="83.398438"/>
      </g>
     </g>
    </g>
    <g id="ytick_6">
     <g id="line2d_8">
      <g>
       <use xlink:href="#md5d4795971" x="49.68" y="46.327189" style="stroke: #000000"/>
      </g>
     </g>
     <g id="text_8">
      <!-- 2.5 -->
      <g transform="translate(27.25 50.621876) scale(0.12 -0.12)">
       <use xlink:href="#ArialMT-32"/>
       <use xlink:href="#ArialMT-2e" x="55.615234"/>
       <use xlink:href="#ArialMT-35" x="83.398438"/>
      </g>
     </g>
    </g>
    <g id="ytick_7">
     <g id="line2d_9">
      <g>
       <use xlink:href="#md5d4795971" x="49.68" y="17.792627" style="stroke: #000000"/>
      </g>
     </g>
     <g id="text_9">
      <!-- 3.0 -->
      <g transform="translate(27.25 22.087314) scale(0.12 -0.12)">
       <defs>
        <path id="ArialMT-33" d="M 269 1209 
L 831 1284 
Q 928 806 1161 595 
Q 1394 384 1728 384 
Q 2125 384 2398 659 
Q 2672 934 2672 1341 
Q 2672 1728 2419 1979 
Q 2166 2231 1775 2231 
Q 1616 2231 1378 2169 
L 1441 2663 
Q 1497 2656 1531 2656 
Q 1891 2656 2178 2843 
Q 2466 3031 2466 3422 
Q 2466 3731 2256 3934 
Q 2047 4138 1716 4138 
Q 1388 4138 1169 3931 
Q 950 3725 888 3313 
L 325 3413 
Q 428 3978 793 4289 
Q 1159 4600 1703 4600 
Q 2078 4600 2393 4439 
Q 2709 4278 2876 4000 
Q 3044 3722 3044 3409 
Q 3044 3113 2884 2869 
Q 2725 2625 2413 2481 
Q 2819 2388 3044 2092 
Q 3269 1797 3269 1353 
Q 3269 753 2831 336 
Q 2394 -81 1725 -81 
Q 1122 -81 723 278 
Q 325 638 269 1209 
z
" transform="scale(0.015625)"/>
       </defs>
       <use xlink:href="#ArialMT-33"/>
       <use xlink:href="#ArialMT-2e" x="55.615234"/>
       <use xlink:href="#ArialMT-30" x="83.398438"/>
      </g>
     </g>
    </g>
    <g id="text_10">
     <!-- $\epsilon$ -->
     <g transform="translate(9.865 98.82) rotate(-90) scale(0.12 -0.12)">
      <use xlink:href="#ArialMT-3b5" transform="translate(0 0.96875)"/>
     </g>
    </g>
   </g>
   <g id="LineCollection_1">
    <path d="M 56.650909 117.931889 
L 78.359068 117.931889 
" clip-path="url(#pd7808d3bc7)" style="fill: none; stroke-dasharray: 3.7,1.6; stroke-dashoffset: 0; stroke: #000000"/>
   </g>
   <g id="LineCollection_2">
    <path d="M 56.650909 131.930876 
L 78.359068 131.930876 
" clip-path="url(#pd7808d3bc7)" style="fill: none; stroke: #000000"/>
   </g>
   <g id="LineCollection_3">
    <path d="M 56.650909 145.929862 
L 78.359068 145.929862 
" clip-path="url(#pd7808d3bc7)" style="fill: none; stroke-dasharray: 3.7,1.6; stroke-dashoffset: 0; stroke: #000000"/>
   </g>
   <g id="LineCollection_4">
    <path d="M 165.191704 164.508879 
L 186.899863 164.508879 
" clip-path="url(#pd7808d3bc7)" style="fill: none; stroke-dasharray: 3.7,1.6; stroke-dashoffset: 0; stroke: #000000"/>
   </g>
   <g id="LineCollection_5">
    <path d="M 165.191704 166.118348 
L 186.899863 166.118348 
" clip-path="url(#pd7808d3bc7)" style="fill: none; stroke: #000000"/>
   </g>
   <g id="LineCollection_6">
    <path d="M 165.191704 167.727817 
L 186.899863 167.727817 
" clip-path="url(#pd7808d3bc7)" style="fill: none; stroke-dasharray: 3.7,1.6; stroke-dashoffset: 0; stroke: #000000"/>
   </g>
   <g id="patch_3">
    <path d="M 49.68 189 
L 49.68 3.24 
" style="fill: none; stroke: #000000; stroke-width: 0.8; stroke-linejoin: miter; stroke-linecap: square"/>
   </g>
   <g id="patch_4">
    <path d="M 203.04 189 
L 203.04 3.24 
" style="fill: none; stroke: #000000; stroke-width: 0.8; stroke-linejoin: miter; stroke-linecap: square"/>
   </g>
   <g id="patch_5">
    <path d="M 49.68 189 
L 203.04 189 
" style="fill: none; stroke: #000000; stroke-width: 0.8; stroke-linejoin: miter; stroke-linecap: square"/>
   </g>
   <g id="patch_6">
    <path d="M 49.68 3.24 
L 203.04 3.24 
" style="fill: none; stroke: #000000; stroke-width: 0.8; stroke-linejoin: miter; stroke-linecap: square"/>
   </g>
  </g>
 </g>
 <defs>
  <clipPath id="pd7808d3bc7">
   <rect x="49.68" y="3.24" width="153.36" height="185.76"/>
  </clipPath>
 </defs>
</svg>
