<?xml version="1.0" encoding="utf-8" standalone="no"?>
<!DOCTYPE svg PUBLIC "-//W3C//DTD SVG 1.1//EN"
  "http://www.w3.org/Graphics/SVG/1.1/DTD/svg11.dtd">
<svg xmlns:xlink="http://www.w3.org/1999/xlink" width="216pt" height="216pt" viewBox="0 0 216 216" xmlns="http://www.w3.org/2000/svg" version="1.1">
 <metadata>
  <rdf:RDF xmlns:dc="http://purl.org/dc/elements/1.1/" xmlns:cc="http://creativecommons.org/ns#" xmlns:rdf="http://www.w3.org/1999/02/22-rdf-syntax-ns#">
   <cc:Work>
    <dc:type rdf:resource="http://purl.org/dc/dcmitype/StillImage"/>
    <dc:date>2024-09-11T19:01:53.481786</dc:date>
    <dc:format>image/svg+xml</dc:format>
    <dc:creator>
     <cc:Agent>
      <dc:title>Matplotlib v3.7.2, https://matplotlib.org/</dc:title>
     </cc:Agent>
    </dc:creator>
   </cc:Work>
  </rdf:RDF>
 </metadata>
 <defs>
  <style type="text/css">*{stroke-linejoin: round; stroke-linecap: butt}</style>
 </defs>
 <g id="figure_1">
  <g id="patch_1">
   <path d="M 0 216 
L 216 216 
L 216 0 
L 0 0 
z
" style="fill: #ffffff"/>
  </g>
  <g id="axes_1">
   <g id="patch_2">
    <path d="M 49.68 189 
L 203.04 189 
L 203.04 3.24 
L 49.68 3.24 
z
" style="fill: #ffffff"/>
   </g>
   <g id="PathCollection_1">
    <defs>
     <path id="mf2f76dca6f" d="M 0 1.581139 
C 0.419323 1.581139 0.821528 1.41454 1.118034 1.118034 
C 1.41454 0.821528 1.581139 0.419323 1.581139 0 
C 1.581139 -0.419323 1.41454 -0.821528 1.118034 -1.118034 
C 0.821528 -1.41454 0.419323 -1.581139 0 -1.581139 
C -0.419323 -1.581139 -0.821528 -1.41454 -1.118034 -1.118034 
C -1.41454 -0.821528 -1.581139 -0.419323 -1.581139 0 
C -1.581139 0.419323 -1.41454 0.821528 -1.118034 1.118034 
C -0.821528 1.41454 -0.419323 1.581139 0 1.581139 
z
" style="stroke: #000080"/>
    </defs>
    <g clip-path="url(#p9f6e71463f)">
     <use xlink:href="#mf2f76dca6f" x="75.739596" y="135.685169" style="fill: #000080; stroke: #000080"/>
     <use xlink:href="#mf2f76dca6f" x="65.195929" y="142.697982" style="fill: #000080; stroke: #000080"/>
     <use xlink:href="#mf2f76dca6f" x="75.595662" y="131.608558" style="fill: #000080; stroke: #000080"/>
     <use xlink:href="#mf2f76dca6f" x="75.519605" y="150.349354" style="fill: #000080; stroke: #000080"/>
     <use xlink:href="#mf2f76dca6f" x="63.59098" y="133.224547" style="fill: #000080; stroke: #000080"/>
     <use xlink:href="#mf2f76dca6f" x="77.077503" y="128.974667" style="fill: #000080; stroke: #000080"/>
     <use xlink:href="#mf2f76dca6f" x="63.118905" y="153.436473" style="fill: #000080; stroke: #000080"/>
     <use xlink:href="#mf2f76dca6f" x="74.278023" y="115.138099" style="fill: #000080; stroke: #000080"/>
     <use xlink:href="#mf2f76dca6f" x="65.875042" y="96.277488" style="fill: #000080; stroke: #000080"/>
     <use xlink:href="#mf2f76dca6f" x="66.632344" y="148.16247" style="fill: #000080; stroke: #000080"/>
     <use xlink:href="#mf2f76dca6f" x="66.883006" y="115.684825" style="fill: #000080; stroke: #000080"/>
    </g>
   </g>
   <g id="PathCollection_2">
    <defs>
     <path id="m6d52d2e5bf" d="M 0 1.581139 
C 0.419323 1.581139 0.821528 1.41454 1.118034 1.118034 
C 1.41454 0.821528 1.581139 0.419323 1.581139 0 
C 1.581139 -0.419323 1.41454 -0.821528 1.118034 -1.118034 
C 0.821528 -1.41454 0.419323 -1.581139 0 -1.581139 
C -0.419323 -1.581139 -0.821528 -1.41454 -1.118034 -1.118034 
C -1.41454 -0.821528 -1.581139 -0.419323 -1.581139 0 
C -1.581139 0.419323 -1.41454 0.821528 -1.118034 1.118034 
C -0.821528 1.41454 -0.419323 1.581139 0 1.581139 
z
" style="stroke: #7e2954"/>
    </defs>
    <g clip-path="url(#p9f6e71463f)">
     <use xlink:href="#m6d52d2e5bf" x="180.954471" y="117.40276" style="fill: #7e2954; stroke: #7e2954"/>
     <use xlink:href="#m6d52d2e5bf" x="192.199517" y="123.583669" style="fill: #7e2954; stroke: #7e2954"/>
     <use xlink:href="#m6d52d2e5bf" x="179.074563" y="124.86793" style="fill: #7e2954; stroke: #7e2954"/>
     <use xlink:href="#m6d52d2e5bf" x="185.450632" y="133.558198" style="fill: #7e2954; stroke: #7e2954"/>
     <use xlink:href="#m6d52d2e5bf" x="183.227632" y="87.367556" style="fill: #7e2954; stroke: #7e2954"/>
     <use xlink:href="#m6d52d2e5bf" x="187.100435" y="138.909232" style="fill: #7e2954; stroke: #7e2954"/>
     <use xlink:href="#m6d52d2e5bf" x="186.870958" y="106.298755" style="fill: #7e2954; stroke: #7e2954"/>
     <use xlink:href="#m6d52d2e5bf" x="186.695935" y="83.933357" style="fill: #7e2954; stroke: #7e2954"/>
     <use xlink:href="#m6d52d2e5bf" x="174.48855" y="126.507876" style="fill: #7e2954; stroke: #7e2954"/>
     <use xlink:href="#m6d52d2e5bf" x="188.200584" y="144.551619" style="fill: #7e2954; stroke: #7e2954"/>
     <use xlink:href="#m6d52d2e5bf" x="179.913591" y="146.398317" style="fill: #7e2954; stroke: #7e2954"/>
     <use xlink:href="#m6d52d2e5bf" x="176.592111" y="124.522745" style="fill: #7e2954; stroke: #7e2954"/>
    </g>
   </g>
   <g id="matplotlib.axis_1">
    <g id="xtick_1">
     <g id="line2d_1">
      <defs>
       <path id="m153d4a6d91" d="M 0 0 
L 0 2.25 
" style="stroke: #000000"/>
      </defs>
      <g>
       <use xlink:href="#m153d4a6d91" x="68.269091" y="189" style="stroke: #000000"/>
      </g>
     </g>
     <g id="text_1">
      <!-- $\frac{\epsilon_{GPM6a}}{&lt;\epsilon_{GPM6a}&gt;}$ -->
      <g transform="translate(47.209091 207.59) scale(0.12 -0.12)">
       <defs>
        <path id="ArialMT-3b5" d="M 2591 2944 
L 2188 2619 
Q 1803 2909 1469 2909 
Q 1194 2909 1067 2762 
Q 941 2616 941 2447 
Q 941 2228 1128 2083 
Q 1316 1938 1678 1938 
Q 1725 1938 1834 1941 
L 1834 1469 
Q 1734 1472 1684 1472 
Q 1238 1472 1064 1300 
Q 891 1128 891 913 
Q 891 691 1066 539 
Q 1241 388 1481 388 
Q 1922 388 2306 797 
L 2709 456 
Q 2209 -75 1466 -75 
Q 881 -75 593 222 
Q 306 519 306 913 
Q 306 1478 856 1716 
Q 397 1975 397 2431 
Q 397 2803 669 3098 
Q 941 3394 1503 3394 
Q 2147 3394 2591 2944 
z
" transform="scale(0.015625)"/>
        <path id="ArialMT-47" d="M 2638 1797 
L 2638 2334 
L 4578 2338 
L 4578 638 
Q 4131 281 3656 101 
Q 3181 -78 2681 -78 
Q 2006 -78 1454 211 
Q 903 500 622 1047 
Q 341 1594 341 2269 
Q 341 2938 620 3517 
Q 900 4097 1425 4378 
Q 1950 4659 2634 4659 
Q 3131 4659 3532 4498 
Q 3934 4338 4162 4050 
Q 4391 3763 4509 3300 
L 3963 3150 
Q 3859 3500 3706 3700 
Q 3553 3900 3268 4020 
Q 2984 4141 2638 4141 
Q 2222 4141 1919 4014 
Q 1616 3888 1430 3681 
Q 1244 3475 1141 3228 
Q 966 2803 966 2306 
Q 966 1694 1177 1281 
Q 1388 869 1791 669 
Q 2194 469 2647 469 
Q 3041 469 3416 620 
Q 3791 772 3984 944 
L 3984 1797 
L 2638 1797 
z
" transform="scale(0.015625)"/>
        <path id="ArialMT-50" d="M 494 0 
L 494 4581 
L 2222 4581 
Q 2678 4581 2919 4538 
Q 3256 4481 3484 4323 
Q 3713 4166 3852 3881 
Q 3991 3597 3991 3256 
Q 3991 2672 3619 2267 
Q 3247 1863 2275 1863 
L 1100 1863 
L 1100 0 
L 494 0 
z
M 1100 2403 
L 2284 2403 
Q 2872 2403 3119 2622 
Q 3366 2841 3366 3238 
Q 3366 3525 3220 3729 
Q 3075 3934 2838 4000 
Q 2684 4041 2272 4041 
L 1100 4041 
L 1100 2403 
z
" transform="scale(0.015625)"/>
        <path id="ArialMT-4d" d="M 475 0 
L 475 4581 
L 1388 4581 
L 2472 1338 
Q 2622 884 2691 659 
Q 2769 909 2934 1394 
L 4031 4581 
L 4847 4581 
L 4847 0 
L 4263 0 
L 4263 3834 
L 2931 0 
L 2384 0 
L 1059 3900 
L 1059 0 
L 475 0 
z
" transform="scale(0.015625)"/>
        <path id="ArialMT-36" d="M 3184 3459 
L 2625 3416 
Q 2550 3747 2413 3897 
Q 2184 4138 1850 4138 
Q 1581 4138 1378 3988 
Q 1113 3794 959 3422 
Q 806 3050 800 2363 
Q 1003 2672 1297 2822 
Q 1591 2972 1913 2972 
Q 2475 2972 2870 2558 
Q 3266 2144 3266 1488 
Q 3266 1056 3080 686 
Q 2894 316 2569 119 
Q 2244 -78 1831 -78 
Q 1128 -78 684 439 
Q 241 956 241 2144 
Q 241 3472 731 4075 
Q 1159 4600 1884 4600 
Q 2425 4600 2770 4297 
Q 3116 3994 3184 3459 
z
M 888 1484 
Q 888 1194 1011 928 
Q 1134 663 1356 523 
Q 1578 384 1822 384 
Q 2178 384 2434 671 
Q 2691 959 2691 1453 
Q 2691 1928 2437 2201 
Q 2184 2475 1800 2475 
Q 1419 2475 1153 2201 
Q 888 1928 888 1484 
z
" transform="scale(0.015625)"/>
        <path id="ArialMT-61" d="M 2588 409 
Q 2275 144 1986 34 
Q 1697 -75 1366 -75 
Q 819 -75 525 192 
Q 231 459 231 875 
Q 231 1119 342 1320 
Q 453 1522 633 1644 
Q 813 1766 1038 1828 
Q 1203 1872 1538 1913 
Q 2219 1994 2541 2106 
Q 2544 2222 2544 2253 
Q 2544 2597 2384 2738 
Q 2169 2928 1744 2928 
Q 1347 2928 1158 2789 
Q 969 2650 878 2297 
L 328 2372 
Q 403 2725 575 2942 
Q 747 3159 1072 3276 
Q 1397 3394 1825 3394 
Q 2250 3394 2515 3294 
Q 2781 3194 2906 3042 
Q 3031 2891 3081 2659 
Q 3109 2516 3109 2141 
L 3109 1391 
Q 3109 606 3145 398 
Q 3181 191 3288 0 
L 2700 0 
Q 2613 175 2588 409 
z
M 2541 1666 
Q 2234 1541 1622 1453 
Q 1275 1403 1131 1340 
Q 988 1278 909 1158 
Q 831 1038 831 891 
Q 831 666 1001 516 
Q 1172 366 1500 366 
Q 1825 366 2078 508 
Q 2331 650 2450 897 
Q 2541 1088 2541 1459 
L 2541 1666 
z
" transform="scale(0.015625)"/>
        <path id="ArialMT-3c" d="M 350 2003 
L 350 2528 
L 3384 3809 
L 3384 3250 
L 978 2263 
L 3384 1266 
L 3384 706 
L 350 2003 
z
" transform="scale(0.015625)"/>
        <path id="ArialMT-3e" d="M 3384 2003 
L 350 706 
L 350 1266 
L 2753 2263 
L 350 3250 
L 350 3809 
L 3384 2528 
L 3384 2003 
z
" transform="scale(0.015625)"/>
       </defs>
       <use xlink:href="#ArialMT-3b5" transform="translate(68 69.878125) scale(0.7)"/>
       <use xlink:href="#ArialMT-47" transform="translate(100.425695 48.97) scale(0.49)"/>
       <use xlink:href="#ArialMT-50" transform="translate(138.539465 48.97) scale(0.49)"/>
       <use xlink:href="#ArialMT-4d" transform="translate(171.222082 48.97) scale(0.49)"/>
       <use xlink:href="#ArialMT-36" transform="translate(212.039465 48.97) scale(0.49)"/>
       <use xlink:href="#ArialMT-61" transform="translate(239.29093 48.97) scale(0.49)"/>
       <use xlink:href="#ArialMT-3c" transform="translate(13.637695 -24.538125) scale(0.7)"/>
       <use xlink:href="#ArialMT-3b5" transform="translate(68.154297 -24.538125) scale(0.7)"/>
       <use xlink:href="#ArialMT-47" transform="translate(100.579992 -45.44625) scale(0.49)"/>
       <use xlink:href="#ArialMT-50" transform="translate(138.693762 -45.44625) scale(0.49)"/>
       <use xlink:href="#ArialMT-4d" transform="translate(171.376379 -45.44625) scale(0.49)"/>
       <use xlink:href="#ArialMT-36" transform="translate(212.193762 -45.44625) scale(0.49)"/>
       <use xlink:href="#ArialMT-61" transform="translate(239.445227 -45.44625) scale(0.49)"/>
       <use xlink:href="#ArialMT-3e" transform="translate(283.819074 -24.538125) scale(0.7)"/>
       <path d="M 0 23.372813 
L 0 29.622813 
L 338.335676 29.622813 
L 338.335676 23.372813 
L 0 23.372813 
z
"/>
      </g>
     </g>
    </g>
    <g id="xtick_2">
     <g id="line2d_2">
      <g>
       <use xlink:href="#m153d4a6d91" x="184.450909" y="189" style="stroke: #000000"/>
      </g>
     </g>
     <g id="text_2">
      <!-- $\frac{\epsilon_{R163Q}}{&lt;\epsilon_{GPM6a}&gt;}$ -->
      <g transform="translate(163.390909 207.83) scale(0.12 -0.12)">
       <defs>
        <path id="ArialMT-52" d="M 503 0 
L 503 4581 
L 2534 4581 
Q 3147 4581 3465 4457 
Q 3784 4334 3975 4021 
Q 4166 3709 4166 3331 
Q 4166 2844 3850 2509 
Q 3534 2175 2875 2084 
Q 3116 1969 3241 1856 
Q 3506 1613 3744 1247 
L 4541 0 
L 3778 0 
L 3172 953 
Q 2906 1366 2734 1584 
Q 2563 1803 2427 1890 
Q 2291 1978 2150 2013 
Q 2047 2034 1813 2034 
L 1109 2034 
L 1109 0 
L 503 0 
z
M 1109 2559 
L 2413 2559 
Q 2828 2559 3062 2645 
Q 3297 2731 3419 2920 
Q 3541 3109 3541 3331 
Q 3541 3656 3305 3865 
Q 3069 4075 2559 4075 
L 1109 4075 
L 1109 2559 
z
" transform="scale(0.015625)"/>
        <path id="ArialMT-31" d="M 2384 0 
L 1822 0 
L 1822 3584 
Q 1619 3391 1289 3197 
Q 959 3003 697 2906 
L 697 3450 
Q 1169 3672 1522 3987 
Q 1875 4303 2022 4600 
L 2384 4600 
L 2384 0 
z
" transform="scale(0.015625)"/>
        <path id="ArialMT-33" d="M 269 1209 
L 831 1284 
Q 928 806 1161 595 
Q 1394 384 1728 384 
Q 2125 384 2398 659 
Q 2672 934 2672 1341 
Q 2672 1728 2419 1979 
Q 2166 2231 1775 2231 
Q 1616 2231 1378 2169 
L 1441 2663 
Q 1497 2656 1531 2656 
Q 1891 2656 2178 2843 
Q 2466 3031 2466 3422 
Q 2466 3731 2256 3934 
Q 2047 4138 1716 4138 
Q 1388 4138 1169 3931 
Q 950 3725 888 3313 
L 325 3413 
Q 428 3978 793 4289 
Q 1159 4600 1703 4600 
Q 2078 4600 2393 4439 
Q 2709 4278 2876 4000 
Q 3044 3722 3044 3409 
Q 3044 3113 2884 2869 
Q 2725 2625 2413 2481 
Q 2819 2388 3044 2092 
Q 3269 1797 3269 1353 
Q 3269 753 2831 336 
Q 2394 -81 1725 -81 
Q 1122 -81 723 278 
Q 325 638 269 1209 
z
" transform="scale(0.015625)"/>
        <path id="ArialMT-51" d="M 3966 491 
Q 4388 200 4744 66 
L 4566 -356 
Q 4072 -178 3581 206 
Q 3072 -78 2456 -78 
Q 1834 -78 1328 222 
Q 822 522 548 1065 
Q 275 1609 275 2291 
Q 275 2969 550 3525 
Q 825 4081 1333 4372 
Q 1841 4663 2469 4663 
Q 3103 4663 3612 4361 
Q 4122 4059 4389 3517 
Q 4656 2975 4656 2294 
Q 4656 1728 4484 1276 
Q 4313 825 3966 491 
z
M 2631 1266 
Q 3156 1119 3497 828 
Q 4031 1316 4031 2294 
Q 4031 2850 3842 3265 
Q 3653 3681 3289 3911 
Q 2925 4141 2472 4141 
Q 1794 4141 1347 3677 
Q 900 3213 900 2291 
Q 900 1397 1342 919 
Q 1784 441 2472 441 
Q 2797 441 3084 563 
Q 2800 747 2484 825 
L 2631 1266 
z
" transform="scale(0.015625)"/>
       </defs>
       <use xlink:href="#ArialMT-3b5" transform="translate(74 71.878125) scale(0.7)"/>
       <use xlink:href="#ArialMT-52" transform="translate(106.425695 50.97) scale(0.49)"/>
       <use xlink:href="#ArialMT-31" transform="translate(141.811926 50.97) scale(0.49)"/>
       <use xlink:href="#ArialMT-36" transform="translate(169.063391 50.97) scale(0.49)"/>
       <use xlink:href="#ArialMT-33" transform="translate(196.314855 50.97) scale(0.49)"/>
       <use xlink:href="#ArialMT-51" transform="translate(223.56632 50.97) scale(0.49)"/>
       <use xlink:href="#ArialMT-3c" transform="translate(13.637695 -24.666562) scale(0.7)"/>
       <use xlink:href="#ArialMT-3b5" transform="translate(68.154297 -24.666562) scale(0.7)"/>
       <use xlink:href="#ArialMT-47" transform="translate(100.579992 -45.574687) scale(0.49)"/>
       <use xlink:href="#ArialMT-50" transform="translate(138.693762 -45.574687) scale(0.49)"/>
       <use xlink:href="#ArialMT-4d" transform="translate(171.376379 -45.574687) scale(0.49)"/>
       <use xlink:href="#ArialMT-36" transform="translate(212.193762 -45.574687) scale(0.49)"/>
       <use xlink:href="#ArialMT-61" transform="translate(239.445227 -45.574687) scale(0.49)"/>
       <use xlink:href="#ArialMT-3e" transform="translate(283.819074 -24.666562) scale(0.7)"/>
       <path d="M 0 23.244375 
L 0 29.494375 
L 338.335676 29.494375 
L 338.335676 23.244375 
L 0 23.244375 
z
"/>
      </g>
     </g>
    </g>
   </g>
   <g id="matplotlib.axis_2">
    <g id="ytick_1">
     <g id="line2d_3">
      <defs>
       <path id="m466caa9723" d="M 0 0 
L -2.25 0 
" style="stroke: #000000"/>
      </defs>
      <g>
       <use xlink:href="#m466caa9723" x="49.68" y="189" style="stroke: #000000"/>
      </g>
     </g>
     <g id="text_3">
      <!-- 0.0 -->
      <g transform="translate(27.25 193.294688) scale(0.12 -0.12)">
       <defs>
        <path id="ArialMT-30" d="M 266 2259 
Q 266 3072 433 3567 
Q 600 4063 929 4331 
Q 1259 4600 1759 4600 
Q 2128 4600 2406 4451 
Q 2684 4303 2865 4023 
Q 3047 3744 3150 3342 
Q 3253 2941 3253 2259 
Q 3253 1453 3087 958 
Q 2922 463 2592 192 
Q 2263 -78 1759 -78 
Q 1097 -78 719 397 
Q 266 969 266 2259 
z
M 844 2259 
Q 844 1131 1108 757 
Q 1372 384 1759 384 
Q 2147 384 2411 759 
Q 2675 1134 2675 2259 
Q 2675 3391 2411 3762 
Q 2147 4134 1753 4134 
Q 1366 4134 1134 3806 
Q 844 3388 844 2259 
z
" transform="scale(0.015625)"/>
        <path id="ArialMT-2e" d="M 581 0 
L 581 641 
L 1222 641 
L 1222 0 
L 581 0 
z
" transform="scale(0.015625)"/>
       </defs>
       <use xlink:href="#ArialMT-30"/>
       <use xlink:href="#ArialMT-2e" x="55.615234"/>
       <use xlink:href="#ArialMT-30" x="83.398438"/>
      </g>
     </g>
    </g>
    <g id="ytick_2">
     <g id="line2d_4">
      <g>
       <use xlink:href="#m466caa9723" x="49.68" y="160.465438" style="stroke: #000000"/>
      </g>
     </g>
     <g id="text_4">
      <!-- 0.5 -->
      <g transform="translate(27.25 164.760125) scale(0.12 -0.12)">
       <defs>
        <path id="ArialMT-35" d="M 266 1200 
L 856 1250 
Q 922 819 1161 601 
Q 1400 384 1738 384 
Q 2144 384 2425 690 
Q 2706 997 2706 1503 
Q 2706 1984 2436 2262 
Q 2166 2541 1728 2541 
Q 1456 2541 1237 2417 
Q 1019 2294 894 2097 
L 366 2166 
L 809 4519 
L 3088 4519 
L 3088 3981 
L 1259 3981 
L 1013 2750 
Q 1425 3038 1878 3038 
Q 2478 3038 2890 2622 
Q 3303 2206 3303 1553 
Q 3303 931 2941 478 
Q 2500 -78 1738 -78 
Q 1113 -78 717 272 
Q 322 622 266 1200 
z
" transform="scale(0.015625)"/>
       </defs>
       <use xlink:href="#ArialMT-30"/>
       <use xlink:href="#ArialMT-2e" x="55.615234"/>
       <use xlink:href="#ArialMT-35" x="83.398438"/>
      </g>
     </g>
    </g>
    <g id="ytick_3">
     <g id="line2d_5">
      <g>
       <use xlink:href="#m466caa9723" x="49.68" y="131.930876" style="stroke: #000000"/>
      </g>
     </g>
     <g id="text_5">
      <!-- 1.0 -->
      <g transform="translate(27.25 136.225563) scale(0.12 -0.12)">
       <use xlink:href="#ArialMT-31"/>
       <use xlink:href="#ArialMT-2e" x="55.615234"/>
       <use xlink:href="#ArialMT-30" x="83.398438"/>
      </g>
     </g>
    </g>
    <g id="ytick_4">
     <g id="line2d_6">
      <g>
       <use xlink:href="#m466caa9723" x="49.68" y="103.396313" style="stroke: #000000"/>
      </g>
     </g>
     <g id="text_6">
      <!-- 1.5 -->
      <g transform="translate(27.25 107.691001) scale(0.12 -0.12)">
       <use xlink:href="#ArialMT-31"/>
       <use xlink:href="#ArialMT-2e" x="55.615234"/>
       <use xlink:href="#ArialMT-35" x="83.398438"/>
      </g>
     </g>
    </g>
    <g id="ytick_5">
     <g id="line2d_7">
      <g>
       <use xlink:href="#m466caa9723" x="49.68" y="74.861751" style="stroke: #000000"/>
      </g>
     </g>
     <g id="text_7">
      <!-- 2.0 -->
      <g transform="translate(27.25 79.156439) scale(0.12 -0.12)">
       <defs>
        <path id="ArialMT-32" d="M 3222 541 
L 3222 0 
L 194 0 
Q 188 203 259 391 
Q 375 700 629 1000 
Q 884 1300 1366 1694 
Q 2113 2306 2375 2664 
Q 2638 3022 2638 3341 
Q 2638 3675 2398 3904 
Q 2159 4134 1775 4134 
Q 1369 4134 1125 3890 
Q 881 3647 878 3216 
L 300 3275 
Q 359 3922 746 4261 
Q 1134 4600 1788 4600 
Q 2447 4600 2831 4234 
Q 3216 3869 3216 3328 
Q 3216 3053 3103 2787 
Q 2991 2522 2730 2228 
Q 2469 1934 1863 1422 
Q 1356 997 1212 845 
Q 1069 694 975 541 
L 3222 541 
z
" transform="scale(0.015625)"/>
       </defs>
       <use xlink:href="#ArialMT-32"/>
       <use xlink:href="#ArialMT-2e" x="55.615234"/>
       <use xlink:href="#ArialMT-30" x="83.398438"/>
      </g>
     </g>
    </g>
    <g id="ytick_6">
     <g id="line2d_8">
      <g>
       <use xlink:href="#m466caa9723" x="49.68" y="46.327189" style="stroke: #000000"/>
      </g>
     </g>
     <g id="text_8">
      <!-- 2.5 -->
      <g transform="translate(27.25 50.621876) scale(0.12 -0.12)">
       <use xlink:href="#ArialMT-32"/>
       <use xlink:href="#ArialMT-2e" x="55.615234"/>
       <use xlink:href="#ArialMT-35" x="83.398438"/>
      </g>
     </g>
    </g>
    <g id="ytick_7">
     <g id="line2d_9">
      <g>
       <use xlink:href="#m466caa9723" x="49.68" y="17.792627" style="stroke: #000000"/>
      </g>
     </g>
     <g id="text_9">
      <!-- 3.0 -->
      <g transform="translate(27.25 22.087314) scale(0.12 -0.12)">
       <use xlink:href="#ArialMT-33"/>
       <use xlink:href="#ArialMT-2e" x="55.615234"/>
       <use xlink:href="#ArialMT-30" x="83.398438"/>
      </g>
     </g>
    </g>
    <g id="text_10">
     <!-- $\epsilon$ -->
     <g transform="translate(9.865 98.82) rotate(-90) scale(0.12 -0.12)">
      <use xlink:href="#ArialMT-3b5" transform="translate(0 0.96875)"/>
     </g>
    </g>
   </g>
   <g id="LineCollection_1">
    <path d="M 56.650909 126.68871 
L 79.887273 126.68871 
" clip-path="url(#p9f6e71463f)" style="fill: none; stroke-dasharray: 3.7,1.6; stroke-dashoffset: 0; stroke: #000000"/>
   </g>
   <g id="LineCollection_2">
    <path d="M 56.650909 131.930876 
L 79.887273 131.930876 
" clip-path="url(#p9f6e71463f)" style="fill: none; stroke: #000000"/>
   </g>
   <g id="LineCollection_3">
    <path d="M 56.650909 137.173041 
L 79.887273 137.173041 
" clip-path="url(#p9f6e71463f)" style="fill: none; stroke-dasharray: 3.7,1.6; stroke-dashoffset: 0; stroke: #000000"/>
   </g>
   <g id="LineCollection_4">
    <path d="M 172.832727 115.670097 
L 196.069091 115.670097 
" clip-path="url(#p9f6e71463f)" style="fill: none; stroke-dasharray: 3.7,1.6; stroke-dashoffset: 0; stroke: #000000"/>
   </g>
   <g id="LineCollection_5">
    <path d="M 172.832727 121.491834 
L 196.069091 121.491834 
" clip-path="url(#p9f6e71463f)" style="fill: none; stroke: #000000"/>
   </g>
   <g id="LineCollection_6">
    <path d="M 172.832727 127.313571 
L 196.069091 127.313571 
" clip-path="url(#p9f6e71463f)" style="fill: none; stroke-dasharray: 3.7,1.6; stroke-dashoffset: 0; stroke: #000000"/>
   </g>
   <g id="patch_3">
    <path d="M 49.68 189 
L 49.68 3.24 
" style="fill: none; stroke: #000000; stroke-width: 0.8; stroke-linejoin: miter; stroke-linecap: square"/>
   </g>
   <g id="patch_4">
    <path d="M 203.04 189 
L 203.04 3.24 
" style="fill: none; stroke: #000000; stroke-width: 0.8; stroke-linejoin: miter; stroke-linecap: square"/>
   </g>
   <g id="patch_5">
    <path d="M 49.68 189 
L 203.04 189 
" style="fill: none; stroke: #000000; stroke-width: 0.8; stroke-linejoin: miter; stroke-linecap: square"/>
   </g>
   <g id="patch_6">
    <path d="M 49.68 3.24 
L 203.04 3.24 
" style="fill: none; stroke: #000000; stroke-width: 0.8; stroke-linejoin: miter; stroke-linecap: square"/>
   </g>
  </g>
 </g>
 <defs>
  <clipPath id="p9f6e71463f">
   <rect x="49.68" y="3.24" width="153.36" height="185.76"/>
  </clipPath>
 </defs>
</svg>
