<?xml version="1.0" encoding="utf-8" standalone="no"?>
<!DOCTYPE svg PUBLIC "-//W3C//DTD SVG 1.1//EN"
  "http://www.w3.org/Graphics/SVG/1.1/DTD/svg11.dtd">
<svg xmlns:xlink="http://www.w3.org/1999/xlink" width="216pt" height="216pt" viewBox="0 0 216 216" xmlns="http://www.w3.org/2000/svg" version="1.1">
 <metadata>
  <rdf:RDF xmlns:dc="http://purl.org/dc/elements/1.1/" xmlns:cc="http://creativecommons.org/ns#" xmlns:rdf="http://www.w3.org/1999/02/22-rdf-syntax-ns#">
   <cc:Work>
    <dc:type rdf:resource="http://purl.org/dc/dcmitype/StillImage"/>
    <dc:date>2024-09-13T11:45:53.976882</dc:date>
    <dc:format>image/svg+xml</dc:format>
    <dc:creator>
     <cc:Agent>
      <dc:title>Matplotlib v3.7.2, https://matplotlib.org/</dc:title>
     </cc:Agent>
    </dc:creator>
   </cc:Work>
  </rdf:RDF>
 </metadata>
 <defs>
  <style type="text/css">*{stroke-linejoin: round; stroke-linecap: butt}</style>
 </defs>
 <g id="figure_1">
  <g id="patch_1">
   <path d="M 0 216 
L 216 216 
L 216 0 
L 0 0 
z
" style="fill: #ffffff"/>
  </g>
  <g id="axes_1">
   <g id="patch_2">
    <path d="M 49.68 189 
L 203.04 189 
L 203.04 3.24 
L 49.68 3.24 
z
" style="fill: #ffffff"/>
   </g>
   <g id="PathCollection_1">
    <defs>
     <path id="m32c3f2145b" d="M 0 1.581139 
C 0.419323 1.581139 0.821528 1.41454 1.118034 1.118034 
C 1.41454 0.821528 1.581139 0.419323 1.581139 0 
C 1.581139 -0.419323 1.41454 -0.821528 1.118034 -1.118034 
C 0.821528 -1.41454 0.419323 -1.581139 0 -1.581139 
C -0.419323 -1.581139 -0.821528 -1.41454 -1.118034 -1.118034 
C -1.41454 -0.821528 -1.581139 -0.419323 -1.581139 0 
C -1.581139 0.419323 -1.41454 0.821528 -1.118034 1.118034 
C -0.821528 1.41454 -0.419323 1.581139 0 1.581139 
z
" style="stroke: #000080"/>
    </defs>
    <g clip-path="url(#p3764dcd5b7)">
     <use xlink:href="#m32c3f2145b" x="65.418387" y="138.612283" style="fill: #000080; stroke: #000080"/>
     <use xlink:href="#m32c3f2145b" x="66.761583" y="153.942981" style="fill: #000080; stroke: #000080"/>
     <use xlink:href="#m32c3f2145b" x="64.498959" y="116.083115" style="fill: #000080; stroke: #000080"/>
     <use xlink:href="#m32c3f2145b" x="74.04964" y="139.100531" style="fill: #000080; stroke: #000080"/>
     <use xlink:href="#m32c3f2145b" x="71.431663" y="109.482212" style="fill: #000080; stroke: #000080"/>
     <use xlink:href="#m32c3f2145b" x="66.389456" y="85.447945" style="fill: #000080; stroke: #000080"/>
     <use xlink:href="#m32c3f2145b" x="66.681327" y="171.275375" style="fill: #000080; stroke: #000080"/>
     <use xlink:href="#m32c3f2145b" x="69.78012" y="141.502562" style="fill: #000080; stroke: #000080"/>
     <use xlink:href="#m32c3f2145b" x="71.762914" y="125.048688" style="fill: #000080; stroke: #000080"/>
     <use xlink:href="#m32c3f2145b" x="69.040151" y="163.523609" style="fill: #000080; stroke: #000080"/>
     <use xlink:href="#m32c3f2145b" x="65.899008" y="82.915806" style="fill: #000080; stroke: #000080"/>
     <use xlink:href="#m32c3f2145b" x="68.569756" y="156.2354" style="fill: #000080; stroke: #000080"/>
    </g>
   </g>
   <g id="PathCollection_2">
    <defs>
     <path id="mf75f41289f" d="M 0 1.581139 
C 0.419323 1.581139 0.821528 1.41454 1.118034 1.118034 
C 1.41454 0.821528 1.581139 0.419323 1.581139 0 
C 1.581139 -0.419323 1.41454 -0.821528 1.118034 -1.118034 
C 0.821528 -1.41454 0.419323 -1.581139 0 -1.581139 
C -0.419323 -1.581139 -0.821528 -1.41454 -1.118034 -1.118034 
C -1.41454 -0.821528 -1.581139 -0.419323 -1.581139 0 
C -1.581139 0.419323 -1.41454 0.821528 -1.118034 1.118034 
C -0.821528 1.41454 -0.419323 1.581139 0 1.581139 
z
" style="stroke: #7e2954"/>
    </defs>
    <g clip-path="url(#p3764dcd5b7)">
     <use xlink:href="#mf75f41289f" x="191.093221" y="167.523232" style="fill: #7e2954; stroke: #7e2954"/>
     <use xlink:href="#mf75f41289f" x="185.061855" y="123.91183" style="fill: #7e2954; stroke: #7e2954"/>
     <use xlink:href="#mf75f41289f" x="182.077719" y="169.469299" style="fill: #7e2954; stroke: #7e2954"/>
     <use xlink:href="#mf75f41289f" x="182.137933" y="157.442951" style="fill: #7e2954; stroke: #7e2954"/>
     <use xlink:href="#mf75f41289f" x="184.308305" y="148.763784" style="fill: #7e2954; stroke: #7e2954"/>
     <use xlink:href="#mf75f41289f" x="183.91194" y="75.91209" style="fill: #7e2954; stroke: #7e2954"/>
     <use xlink:href="#mf75f41289f" x="181.773147" y="155.33227" style="fill: #7e2954; stroke: #7e2954"/>
     <use xlink:href="#mf75f41289f" x="188.816339" y="148.899779" style="fill: #7e2954; stroke: #7e2954"/>
     <use xlink:href="#mf75f41289f" x="176.222864" y="152.119221" style="fill: #7e2954; stroke: #7e2954"/>
    </g>
   </g>
   <g id="matplotlib.axis_1">
    <g id="xtick_1">
     <g id="line2d_1">
      <defs>
       <path id="mfeb6f5bf00" d="M 0 0 
L 0 2.25 
" style="stroke: #000000"/>
      </defs>
      <g>
       <use xlink:href="#mfeb6f5bf00" x="68.269091" y="189" style="stroke: #000000"/>
      </g>
     </g>
     <g id="text_1">
      <!-- $\frac{\epsilon_{GPM6a}}{&lt;\epsilon_{GPM6a}&gt;}$ -->
      <g transform="translate(44.509091 206.27) scale(0.12 -0.12)">
       <defs>
        <path id="DejaVuSans-Oblique-3b5" d="M 1263 1888 
Q 925 1963 778 2166 
Q 669 2309 669 2503 
Q 669 3034 1175 3344 
Q 1575 3588 2188 3588 
Q 2425 3588 2684 3550 
Q 2944 3513 3234 3438 
L 3134 2916 
Q 2847 3006 2606 3047 
Q 2359 3088 2138 3088 
Q 1766 3088 1522 2944 
Q 1228 2772 1228 2522 
Q 1228 2356 1381 2241 
Q 1563 2103 1925 2103 
L 2409 2103 
L 2319 1628 
L 1856 1628 
Q 1425 1628 1172 1469 
Q 828 1253 828 916 
Q 828 703 1013 563 
Q 1244 388 1716 388 
Q 2006 388 2284 444 
Q 2563 503 2806 619 
L 2700 84 
Q 2403 -3 2131 -47 
Q 1859 -91 1609 -91 
Q 866 -91 516 194 
Q 250 413 250 781 
Q 250 1278 600 1584 
Q 859 1813 1263 1888 
z
" transform="scale(0.015625)"/>
        <path id="DejaVuSans-Oblique-47" d="M 3494 697 
L 3738 1919 
L 2700 1919 
L 2797 2438 
L 4453 2438 
L 4050 384 
Q 3634 156 3143 32 
Q 2653 -91 2156 -91 
Q 1278 -91 783 396 
Q 288 884 288 1753 
Q 288 2475 589 3126 
Q 891 3778 1422 4213 
Q 1756 4484 2153 4617 
Q 2550 4750 3034 4750 
Q 3472 4750 3873 4639 
Q 4275 4528 4641 4306 
L 4513 3634 
Q 4231 3928 3853 4083 
Q 3475 4238 3047 4238 
Q 2550 4238 2172 4048 
Q 1794 3859 1497 3463 
Q 1244 3125 1098 2667 
Q 953 2209 953 1734 
Q 953 1081 1287 751 
Q 1622 422 2284 422 
Q 2616 422 2925 492 
Q 3234 563 3494 697 
z
" transform="scale(0.015625)"/>
        <path id="DejaVuSans-Oblique-50" d="M 1081 4666 
L 2541 4666 
Q 3178 4666 3512 4369 
Q 3847 4072 3847 3500 
Q 3847 2731 3353 2303 
Q 2859 1875 1966 1875 
L 1172 1875 
L 806 0 
L 172 0 
L 1081 4666 
z
M 1613 4147 
L 1275 2394 
L 2069 2394 
Q 2606 2394 2893 2669 
Q 3181 2944 3181 3456 
Q 3181 3784 2986 3965 
Q 2791 4147 2438 4147 
L 1613 4147 
z
" transform="scale(0.015625)"/>
        <path id="DejaVuSans-Oblique-4d" d="M 1081 4666 
L 2028 4666 
L 2572 1522 
L 4378 4666 
L 5350 4666 
L 4441 0 
L 3828 0 
L 4622 4091 
L 2791 897 
L 2175 897 
L 1581 4103 
L 788 0 
L 172 0 
L 1081 4666 
z
" transform="scale(0.015625)"/>
        <path id="DejaVuSans-36" d="M 2113 2584 
Q 1688 2584 1439 2293 
Q 1191 2003 1191 1497 
Q 1191 994 1439 701 
Q 1688 409 2113 409 
Q 2538 409 2786 701 
Q 3034 994 3034 1497 
Q 3034 2003 2786 2293 
Q 2538 2584 2113 2584 
z
M 3366 4563 
L 3366 3988 
Q 3128 4100 2886 4159 
Q 2644 4219 2406 4219 
Q 1781 4219 1451 3797 
Q 1122 3375 1075 2522 
Q 1259 2794 1537 2939 
Q 1816 3084 2150 3084 
Q 2853 3084 3261 2657 
Q 3669 2231 3669 1497 
Q 3669 778 3244 343 
Q 2819 -91 2113 -91 
Q 1303 -91 875 529 
Q 447 1150 447 2328 
Q 447 3434 972 4092 
Q 1497 4750 2381 4750 
Q 2619 4750 2861 4703 
Q 3103 4656 3366 4563 
z
" transform="scale(0.015625)"/>
        <path id="DejaVuSans-Oblique-61" d="M 3438 1997 
L 3047 0 
L 2472 0 
L 2578 531 
Q 2325 219 2001 64 
Q 1678 -91 1281 -91 
Q 834 -91 548 182 
Q 263 456 263 884 
Q 263 1497 752 1853 
Q 1241 2209 2100 2209 
L 2900 2209 
L 2931 2363 
Q 2938 2388 2941 2417 
Q 2944 2447 2944 2509 
Q 2944 2788 2717 2942 
Q 2491 3097 2081 3097 
Q 1800 3097 1504 3025 
Q 1209 2953 897 2809 
L 997 3341 
Q 1322 3463 1633 3523 
Q 1944 3584 2234 3584 
Q 2853 3584 3176 3315 
Q 3500 3047 3500 2534 
Q 3500 2431 3484 2292 
Q 3469 2153 3438 1997 
z
M 2816 1759 
L 2241 1759 
Q 1534 1759 1195 1570 
Q 856 1381 856 984 
Q 856 709 1029 553 
Q 1203 397 1509 397 
Q 1978 397 2328 733 
Q 2678 1069 2791 1631 
L 2816 1759 
z
" transform="scale(0.015625)"/>
        <path id="DejaVuSans-3c" d="M 4684 3150 
L 1459 2003 
L 4684 863 
L 4684 294 
L 678 1747 
L 678 2266 
L 4684 3719 
L 4684 3150 
z
" transform="scale(0.015625)"/>
        <path id="DejaVuSans-3e" d="M 678 3150 
L 678 3719 
L 4684 2266 
L 4684 1747 
L 678 294 
L 678 863 
L 3897 2003 
L 678 3150 
z
" transform="scale(0.015625)"/>
       </defs>
       <use xlink:href="#DejaVuSans-Oblique-3b5" transform="translate(86 56.75625) scale(0.7)"/>
       <use xlink:href="#DejaVuSans-Oblique-47" transform="translate(123.836914 45.271875) scale(0.49)"/>
       <use xlink:href="#DejaVuSans-Oblique-50" transform="translate(161.807129 45.271875) scale(0.49)"/>
       <use xlink:href="#DejaVuSans-Oblique-4d" transform="translate(191.355469 45.271875) scale(0.49)"/>
       <use xlink:href="#DejaVuSans-36" transform="translate(233.632324 45.271875) scale(0.49)"/>
       <use xlink:href="#DejaVuSans-Oblique-61" transform="translate(264.807617 45.271875) scale(0.49)"/>
       <use xlink:href="#DejaVuSans-3c" transform="translate(13.637695 -27.351406) scale(0.7)"/>
       <use xlink:href="#DejaVuSans-Oblique-3b5" transform="translate(85.927734 -27.351406) scale(0.7)"/>
       <use xlink:href="#DejaVuSans-Oblique-47" transform="translate(123.764648 -38.835781) scale(0.49)"/>
       <use xlink:href="#DejaVuSans-Oblique-50" transform="translate(161.734863 -38.835781) scale(0.49)"/>
       <use xlink:href="#DejaVuSans-Oblique-4d" transform="translate(191.283203 -38.835781) scale(0.49)"/>
       <use xlink:href="#DejaVuSans-36" transform="translate(233.560059 -38.835781) scale(0.49)"/>
       <use xlink:href="#DejaVuSans-Oblique-61" transform="translate(264.735352 -38.835781) scale(0.49)"/>
       <use xlink:href="#DejaVuSans-3e" transform="translate(310.313965 -27.351406) scale(0.7)"/>
       <path d="M 0 19.575156 
L 0 25.825156 
L 382.604004 25.825156 
L 382.604004 19.575156 
L 0 19.575156 
z
"/>
      </g>
     </g>
    </g>
    <g id="xtick_2">
     <g id="line2d_2">
      <g>
       <use xlink:href="#mfeb6f5bf00" x="184.450909" y="189" style="stroke: #000000"/>
      </g>
     </g>
     <g id="text_2">
      <!-- $\frac{\epsilon_{M154V}}{&lt;\epsilon_{GPM6a}&gt;}$ -->
      <g transform="translate(160.690909 206.27) scale(0.12 -0.12)">
       <defs>
        <path id="DejaVuSans-31" d="M 794 531 
L 1825 531 
L 1825 4091 
L 703 3866 
L 703 4441 
L 1819 4666 
L 2450 4666 
L 2450 531 
L 3481 531 
L 3481 0 
L 794 0 
L 794 531 
z
" transform="scale(0.015625)"/>
        <path id="DejaVuSans-35" d="M 691 4666 
L 3169 4666 
L 3169 4134 
L 1269 4134 
L 1269 2991 
Q 1406 3038 1543 3061 
Q 1681 3084 1819 3084 
Q 2600 3084 3056 2656 
Q 3513 2228 3513 1497 
Q 3513 744 3044 326 
Q 2575 -91 1722 -91 
Q 1428 -91 1123 -41 
Q 819 9 494 109 
L 494 744 
Q 775 591 1075 516 
Q 1375 441 1709 441 
Q 2250 441 2565 725 
Q 2881 1009 2881 1497 
Q 2881 1984 2565 2268 
Q 2250 2553 1709 2553 
Q 1456 2553 1204 2497 
Q 953 2441 691 2322 
L 691 4666 
z
" transform="scale(0.015625)"/>
        <path id="DejaVuSans-34" d="M 2419 4116 
L 825 1625 
L 2419 1625 
L 2419 4116 
z
M 2253 4666 
L 3047 4666 
L 3047 1625 
L 3713 1625 
L 3713 1100 
L 3047 1100 
L 3047 0 
L 2419 0 
L 2419 1100 
L 313 1100 
L 313 1709 
L 2253 4666 
z
" transform="scale(0.015625)"/>
        <path id="DejaVuSans-Oblique-56" d="M 1319 0 
L 500 4666 
L 1119 4666 
L 1797 653 
L 4063 4666 
L 4750 4666 
L 2053 0 
L 1319 0 
z
" transform="scale(0.015625)"/>
       </defs>
       <use xlink:href="#DejaVuSans-Oblique-3b5" transform="translate(87 56.75625) scale(0.7)"/>
       <use xlink:href="#DejaVuSans-Oblique-4d" transform="translate(124.836914 45.271875) scale(0.49)"/>
       <use xlink:href="#DejaVuSans-31" transform="translate(167.11377 45.271875) scale(0.49)"/>
       <use xlink:href="#DejaVuSans-35" transform="translate(198.289062 45.271875) scale(0.49)"/>
       <use xlink:href="#DejaVuSans-34" transform="translate(229.464355 45.271875) scale(0.49)"/>
       <use xlink:href="#DejaVuSans-Oblique-56" transform="translate(260.639648 45.271875) scale(0.49)"/>
       <use xlink:href="#DejaVuSans-3c" transform="translate(13.637695 -27.351406) scale(0.7)"/>
       <use xlink:href="#DejaVuSans-Oblique-3b5" transform="translate(85.927734 -27.351406) scale(0.7)"/>
       <use xlink:href="#DejaVuSans-Oblique-47" transform="translate(123.764648 -38.835781) scale(0.49)"/>
       <use xlink:href="#DejaVuSans-Oblique-50" transform="translate(161.734863 -38.835781) scale(0.49)"/>
       <use xlink:href="#DejaVuSans-Oblique-4d" transform="translate(191.283203 -38.835781) scale(0.49)"/>
       <use xlink:href="#DejaVuSans-36" transform="translate(233.560059 -38.835781) scale(0.49)"/>
       <use xlink:href="#DejaVuSans-Oblique-61" transform="translate(264.735352 -38.835781) scale(0.49)"/>
       <use xlink:href="#DejaVuSans-3e" transform="translate(310.313965 -27.351406) scale(0.7)"/>
       <path d="M 0 19.575156 
L 0 25.825156 
L 382.604004 25.825156 
L 382.604004 19.575156 
L 0 19.575156 
z
"/>
      </g>
     </g>
    </g>
   </g>
   <g id="matplotlib.axis_2">
    <g id="ytick_1">
     <g id="line2d_3">
      <defs>
       <path id="m06978d9eca" d="M 0 0 
L -2.25 0 
" style="stroke: #000000"/>
      </defs>
      <g>
       <use xlink:href="#m06978d9eca" x="49.68" y="189" style="stroke: #000000"/>
      </g>
     </g>
     <g id="text_3">
      <!-- 0.0 -->
      <g transform="translate(24.84625 193.559063) scale(0.12 -0.12)">
       <defs>
        <path id="DejaVuSans-30" d="M 2034 4250 
Q 1547 4250 1301 3770 
Q 1056 3291 1056 2328 
Q 1056 1369 1301 889 
Q 1547 409 2034 409 
Q 2525 409 2770 889 
Q 3016 1369 3016 2328 
Q 3016 3291 2770 3770 
Q 2525 4250 2034 4250 
z
M 2034 4750 
Q 2819 4750 3233 4129 
Q 3647 3509 3647 2328 
Q 3647 1150 3233 529 
Q 2819 -91 2034 -91 
Q 1250 -91 836 529 
Q 422 1150 422 2328 
Q 422 3509 836 4129 
Q 1250 4750 2034 4750 
z
" transform="scale(0.015625)"/>
        <path id="DejaVuSans-2e" d="M 684 794 
L 1344 794 
L 1344 0 
L 684 0 
L 684 794 
z
" transform="scale(0.015625)"/>
       </defs>
       <use xlink:href="#DejaVuSans-30"/>
       <use xlink:href="#DejaVuSans-2e" x="63.623047"/>
       <use xlink:href="#DejaVuSans-30" x="95.410156"/>
      </g>
     </g>
    </g>
    <g id="ytick_2">
     <g id="line2d_4">
      <g>
       <use xlink:href="#m06978d9eca" x="49.68" y="160.465438" style="stroke: #000000"/>
      </g>
     </g>
     <g id="text_4">
      <!-- 0.5 -->
      <g transform="translate(24.84625 165.0245) scale(0.12 -0.12)">
       <use xlink:href="#DejaVuSans-30"/>
       <use xlink:href="#DejaVuSans-2e" x="63.623047"/>
       <use xlink:href="#DejaVuSans-35" x="95.410156"/>
      </g>
     </g>
    </g>
    <g id="ytick_3">
     <g id="line2d_5">
      <g>
       <use xlink:href="#m06978d9eca" x="49.68" y="131.930876" style="stroke: #000000"/>
      </g>
     </g>
     <g id="text_5">
      <!-- 1.0 -->
      <g transform="translate(24.84625 136.489938) scale(0.12 -0.12)">
       <use xlink:href="#DejaVuSans-31"/>
       <use xlink:href="#DejaVuSans-2e" x="63.623047"/>
       <use xlink:href="#DejaVuSans-30" x="95.410156"/>
      </g>
     </g>
    </g>
    <g id="ytick_4">
     <g id="line2d_6">
      <g>
       <use xlink:href="#m06978d9eca" x="49.68" y="103.396313" style="stroke: #000000"/>
      </g>
     </g>
     <g id="text_6">
      <!-- 1.5 -->
      <g transform="translate(24.84625 107.955376) scale(0.12 -0.12)">
       <use xlink:href="#DejaVuSans-31"/>
       <use xlink:href="#DejaVuSans-2e" x="63.623047"/>
       <use xlink:href="#DejaVuSans-35" x="95.410156"/>
      </g>
     </g>
    </g>
    <g id="ytick_5">
     <g id="line2d_7">
      <g>
       <use xlink:href="#m06978d9eca" x="49.68" y="74.861751" style="stroke: #000000"/>
      </g>
     </g>
     <g id="text_7">
      <!-- 2.0 -->
      <g transform="translate(24.84625 79.420814) scale(0.12 -0.12)">
       <defs>
        <path id="DejaVuSans-32" d="M 1228 531 
L 3431 531 
L 3431 0 
L 469 0 
L 469 531 
Q 828 903 1448 1529 
Q 2069 2156 2228 2338 
Q 2531 2678 2651 2914 
Q 2772 3150 2772 3378 
Q 2772 3750 2511 3984 
Q 2250 4219 1831 4219 
Q 1534 4219 1204 4116 
Q 875 4013 500 3803 
L 500 4441 
Q 881 4594 1212 4672 
Q 1544 4750 1819 4750 
Q 2544 4750 2975 4387 
Q 3406 4025 3406 3419 
Q 3406 3131 3298 2873 
Q 3191 2616 2906 2266 
Q 2828 2175 2409 1742 
Q 1991 1309 1228 531 
z
" transform="scale(0.015625)"/>
       </defs>
       <use xlink:href="#DejaVuSans-32"/>
       <use xlink:href="#DejaVuSans-2e" x="63.623047"/>
       <use xlink:href="#DejaVuSans-30" x="95.410156"/>
      </g>
     </g>
    </g>
    <g id="ytick_6">
     <g id="line2d_8">
      <g>
       <use xlink:href="#m06978d9eca" x="49.68" y="46.327189" style="stroke: #000000"/>
      </g>
     </g>
     <g id="text_8">
      <!-- 2.5 -->
      <g transform="translate(24.84625 50.886251) scale(0.12 -0.12)">
       <use xlink:href="#DejaVuSans-32"/>
       <use xlink:href="#DejaVuSans-2e" x="63.623047"/>
       <use xlink:href="#DejaVuSans-35" x="95.410156"/>
      </g>
     </g>
    </g>
    <g id="ytick_7">
     <g id="line2d_9">
      <g>
       <use xlink:href="#m06978d9eca" x="49.68" y="17.792627" style="stroke: #000000"/>
      </g>
     </g>
     <g id="text_9">
      <!-- 3.0 -->
      <g transform="translate(24.84625 22.351689) scale(0.12 -0.12)">
       <defs>
        <path id="DejaVuSans-33" d="M 2597 2516 
Q 3050 2419 3304 2112 
Q 3559 1806 3559 1356 
Q 3559 666 3084 287 
Q 2609 -91 1734 -91 
Q 1441 -91 1130 -33 
Q 819 25 488 141 
L 488 750 
Q 750 597 1062 519 
Q 1375 441 1716 441 
Q 2309 441 2620 675 
Q 2931 909 2931 1356 
Q 2931 1769 2642 2001 
Q 2353 2234 1838 2234 
L 1294 2234 
L 1294 2753 
L 1863 2753 
Q 2328 2753 2575 2939 
Q 2822 3125 2822 3475 
Q 2822 3834 2567 4026 
Q 2313 4219 1838 4219 
Q 1578 4219 1281 4162 
Q 984 4106 628 3988 
L 628 4550 
Q 988 4650 1302 4700 
Q 1616 4750 1894 4750 
Q 2613 4750 3031 4423 
Q 3450 4097 3450 3541 
Q 3450 3153 3228 2886 
Q 3006 2619 2597 2516 
z
" transform="scale(0.015625)"/>
       </defs>
       <use xlink:href="#DejaVuSans-33"/>
       <use xlink:href="#DejaVuSans-2e" x="63.623047"/>
       <use xlink:href="#DejaVuSans-30" x="95.410156"/>
      </g>
     </g>
    </g>
    <g id="text_10">
     <!-- $\epsilon$ -->
     <g transform="translate(7.350625 99.42) rotate(-90) scale(0.12 -0.12)">
      <use xlink:href="#DejaVuSans-Oblique-3b5" transform="translate(0 0.9375)"/>
     </g>
    </g>
   </g>
   <g id="LineCollection_1">
    <path d="M 56.650909 123.59394 
L 79.887273 123.59394 
" clip-path="url(#p3764dcd5b7)" style="fill: none; stroke-dasharray: 3.7,1.6; stroke-dashoffset: 0; stroke: #000000"/>
   </g>
   <g id="LineCollection_2">
    <path d="M 56.650909 131.930876 
L 79.887273 131.930876 
" clip-path="url(#p3764dcd5b7)" style="fill: none; stroke: #000000"/>
   </g>
   <g id="LineCollection_3">
    <path d="M 56.650909 140.267811 
L 79.887273 140.267811 
" clip-path="url(#p3764dcd5b7)" style="fill: none; stroke-dasharray: 3.7,1.6; stroke-dashoffset: 0; stroke: #000000"/>
   </g>
   <g id="LineCollection_4">
    <path d="M 172.832727 134.755791 
L 196.069091 134.755791 
" clip-path="url(#p3764dcd5b7)" style="fill: none; stroke-dasharray: 3.7,1.6; stroke-dashoffset: 0; stroke: #000000"/>
   </g>
   <g id="LineCollection_5">
    <path d="M 172.832727 144.374939 
L 196.069091 144.374939 
" clip-path="url(#p3764dcd5b7)" style="fill: none; stroke: #000000"/>
   </g>
   <g id="LineCollection_6">
    <path d="M 172.832727 153.994088 
L 196.069091 153.994088 
" clip-path="url(#p3764dcd5b7)" style="fill: none; stroke-dasharray: 3.7,1.6; stroke-dashoffset: 0; stroke: #000000"/>
   </g>
   <g id="patch_3">
    <path d="M 49.68 189 
L 49.68 3.24 
" style="fill: none; stroke: #000000; stroke-width: 0.8; stroke-linejoin: miter; stroke-linecap: square"/>
   </g>
   <g id="patch_4">
    <path d="M 203.04 189 
L 203.04 3.24 
" style="fill: none; stroke: #000000; stroke-width: 0.8; stroke-linejoin: miter; stroke-linecap: square"/>
   </g>
   <g id="patch_5">
    <path d="M 49.68 189 
L 203.04 189 
" style="fill: none; stroke: #000000; stroke-width: 0.8; stroke-linejoin: miter; stroke-linecap: square"/>
   </g>
   <g id="patch_6">
    <path d="M 49.68 3.24 
L 203.04 3.24 
" style="fill: none; stroke: #000000; stroke-width: 0.8; stroke-linejoin: miter; stroke-linecap: square"/>
   </g>
  </g>
 </g>
 <defs>
  <clipPath id="p3764dcd5b7">
   <rect x="49.68" y="3.24" width="153.36" height="185.76"/>
  </clipPath>
 </defs>
</svg>
